<svg xmlns="http://www.w3.org/2000/svg" xmlns:xlink="http://www.w3.org/1999/xlink" version="1.1" x="0px" y="0px" viewBox="0 0 100 125" enable-background="new 0 0 100 100" xml:space="preserve"><g><path d="M61.616,69.793c-0.014,0-0.029,0-0.045,0H36.252c-0.642,0-1.16-0.52-1.16-1.16v-3.406c0-0.308,0.124-0.604,0.342-0.822   c0.062-0.061,5.988-6.01,5.988-11.41c0-3.799,7.116-6.756,17.974-10.834c4.668-1.751,11.721-4.4,12.199-5.698   c0.199-2.239-5.981-6.858-10.224-9.265c-0.439-0.247-0.668-0.75-0.563-1.244c0.102-0.494,0.512-0.865,1.013-0.917l10.612-1.119   c0.292-0.034,0.599,0.054,0.839,0.24c1.169,0.917,11.439,9.138,11.695,14.994c0.059,1.362-0.417,2.558-1.38,3.46   c-0.202,0.188-0.467,0.299-0.741,0.313c-0.093,0.002-9.215,0.492-15.121,7.185c-3.879,4.391-5.566,10.486-5.021,18.117   c0.047,0.127,0.072,0.266,0.072,0.408C62.776,69.273,62.258,69.793,61.616,69.793z M37.411,67.473h22.923   c-0.395-7.862,1.511-14.225,5.669-18.921c5.822-6.58,14.136-7.724,16.249-7.912c0.295-0.383,0.42-0.833,0.396-1.387   c-0.17-3.906-7.274-10.424-10.444-12.98l-6.747,0.711c3.572,2.352,8.745,6.367,8.439,9.731c-0.225,2.452-4.847,4.298-13.685,7.618   c-6.161,2.313-16.47,6.183-16.47,8.661c0,5.602-4.953,11.24-6.331,12.702V67.473z"/></g><g><path d="M39.043,63.029c-0.091,0-0.186-0.012-0.278-0.033c-0.621-0.154-1.002-0.782-0.848-1.405   c0.891-3.601-0.614-8.961-3.578-12.747c-2.236-2.857-4.995-4.429-7.767-4.429c-8.646,0-19.302-9.235-19.75-9.629   c-0.252-0.22-0.396-0.537-0.396-0.873v-2.696c0-0.642,0.519-1.16,1.16-1.16H20.74c0.252,0,0.496,0.082,0.695,0.231l9.745,7.309   h6.747c1.949-7.54,9.424-7.54,17.317-7.54c8.596,0,15.806,7.583,16.109,7.907c0.438,0.467,0.412,1.201-0.055,1.638   c-0.462,0.438-1.198,0.419-1.638-0.052c-0.068-0.07-6.836-7.173-14.417-7.173c-8.703,0-14.095,0.317-15.241,6.589   c-0.103,0.551-0.583,0.952-1.143,0.952h-8.068c-0.251,0-0.496-0.082-0.695-0.231l-9.745-7.31H8.746v0.997   c1.976,1.638,10.916,8.721,17.826,8.721c3.501,0,6.908,1.89,9.593,5.32c3.422,4.371,5.068,10.43,4.004,14.734   C40.037,62.676,39.564,63.029,39.043,63.029z"/></g><g><path d="M19.345,76.09c-7.935,0-14.39-6.458-14.39-14.396c0-7.934,6.455-14.388,14.39-14.388c5.034,0,9.62,2.576,12.265,6.888   c0.19,0.309,0.224,0.687,0.095,1.021c-0.129,0.338-0.407,0.596-0.752,0.698L19.676,59.26c-0.451,0.136-1.452,0.615-1.668,1.219   c-0.111,0.316,0.002,0.734,0.345,1.239c0.029,0.036,0.97,1.049,8.424,1.049c1.907,0,3.852-0.065,5.563-0.147   c0.328-0.049,0.687,0.125,0.92,0.383c0.233,0.261,0.337,0.612,0.283,0.957C32.427,70.986,26.457,76.09,19.345,76.09z    M19.345,49.625c-6.654,0-12.069,5.414-12.069,12.068c0,6.658,5.415,12.076,12.069,12.076c5.479,0,10.148-3.609,11.599-8.77   c-1.342,0.053-2.765,0.087-4.167,0.087c-7.892,0-9.661-1.05-10.35-2.073c-0.968-1.437-0.861-2.602-0.601-3.324   c0.673-1.867,2.937-2.58,3.192-2.654l9.729-2.89C26.468,51.291,23.052,49.625,19.345,49.625z"/></g><g><path d="M17.555,41.789c-0.059,0-0.118-0.005-0.177-0.014L8.036,40.35c-0.313-0.047-0.593-0.22-0.774-0.478   c-0.182-0.261-0.249-0.582-0.188-0.891l0.807-4.117c0.12-0.632,0.739-1.046,1.359-0.915c0.63,0.122,1.04,0.731,0.916,1.359   l-0.573,2.929l8.145,1.244c0.635,0.098,1.07,0.689,0.973,1.321C18.61,41.378,18.117,41.789,17.555,41.789z"/></g><g><path d="M79.864,60.728c-0.439,0-0.861-0.251-1.056-0.68l-6.82-14.997c-0.265-0.583-0.007-1.271,0.576-1.536   c0.587-0.258,1.269-0.009,1.536,0.575l6.819,14.998c0.266,0.582,0.007,1.271-0.575,1.535   C80.188,60.693,80.025,60.728,79.864,60.728z"/></g><g><path d="M80.652,76.09c-7.935,0-14.389-6.458-14.389-14.396c0-2.916,0.874-5.732,2.528-8.139c0.251-0.367,0.687-0.558,1.137-0.49   l7.989,1.258l10.964-3.762c0.388-0.133,0.82-0.049,1.131,0.216c3.199,2.746,5.032,6.723,5.032,10.917   C95.045,69.632,88.59,76.09,80.652,76.09z M70.313,55.476c-1.133,1.878-1.729,4.013-1.729,6.218   c0,6.658,5.415,12.076,12.069,12.076c6.657,0,12.072-5.418,12.072-12.076c0-3.297-1.355-6.439-3.736-8.717l-10.59,3.635   c-0.177,0.063-0.369,0.078-0.558,0.049L70.313,55.476z"/></g><g><path d="M80.652,65.467c-1.984,0-3.6-1.613-3.6-3.598s1.615-3.6,3.6-3.6c1.985,0,3.599,1.615,3.599,3.6   S82.638,65.467,80.652,65.467z M80.652,60.59c-0.706,0-1.279,0.572-1.279,1.279c0,0.705,0.573,1.278,1.279,1.278   c0.705,0,1.278-0.573,1.278-1.278C81.931,61.162,81.357,60.59,80.652,60.59z"/></g><g><path d="M78.022,56.674c-0.062,0-0.12-0.004-0.182-0.014l-9.398-1.479c-0.383-0.062-0.711-0.311-0.872-0.664   c-0.163-0.354-0.138-0.764,0.068-1.095c2.902-4.676,7.902-7.468,13.374-7.468c3.999,0,7.819,1.516,10.753,4.266   c0.297,0.279,0.427,0.693,0.343,1.089c-0.086,0.399-0.374,0.724-0.759,0.855l-12.951,4.445   C78.278,56.654,78.149,56.674,78.022,56.674z M70.658,53.181l7.26,1.142l10.696-3.67c-2.229-1.543-4.866-2.377-7.602-2.377   C76.953,48.275,73.196,50.081,70.658,53.181z"/></g><g><path d="M80.719,71.863c-5.61,0-10.174-4.559-10.174-10.159c0-2.87,1.251-5.63,3.429-7.572c0.261-0.231,0.611-0.333,0.954-0.28   l2.99,0.471l5.911-2.025c0.272-0.096,0.566-0.086,0.825,0.027c3.783,1.59,6.226,5.271,6.226,9.38   C90.88,67.305,86.321,71.863,80.719,71.863z M75.129,56.232c-1.464,1.482-2.264,3.405-2.264,5.472c0,4.323,3.523,7.839,7.854,7.839   c4.322,0,7.842-3.516,7.842-7.839c0-3.026-1.718-5.755-4.414-7.064l-5.748,1.972c-0.182,0.063-0.369,0.078-0.558,0.049   L75.129,56.232z"/></g><g><path d="M27.104,65.119c-4.928,0-9.574-0.467-10.678-2.105c-0.968-1.437-0.861-2.602-0.601-3.324   c0.673-1.867,2.937-2.58,3.192-2.654l18.529-5.502c0.62-0.179,1.26,0.17,1.443,0.781c0.181,0.615-0.168,1.26-0.782,1.443   L19.676,59.26c-0.451,0.136-1.452,0.615-1.668,1.219c-0.111,0.316,0.002,0.734,0.342,1.239c0.977,1.153,9.861,1.402,19.408,0.542   c0.623-0.053,1.203,0.412,1.26,1.051s-0.412,1.201-1.051,1.26C35.354,64.806,31.136,65.119,27.104,65.119z"/></g><g><path d="M19.261,71.863c-5.609,0-10.173-4.559-10.173-10.159c0-5.61,4.563-10.173,10.173-10.173c3.07,0,5.95,1.4,7.9,3.84   c0.24,0.304,0.317,0.705,0.2,1.072c-0.116,0.369-0.406,0.654-0.775,0.766l-6.91,2.051c-0.451,0.136-1.452,0.615-1.668,1.219   c-0.111,0.316,0.002,0.734,0.345,1.239c0.029,0.036,0.97,1.047,8.451,1.047l1.137-0.007c0.257-0.005,0.7,0.16,0.925,0.441   c0.225,0.283,0.302,0.654,0.213,1.004C27.93,68.715,23.892,71.863,19.261,71.863z M19.261,53.852c-4.33,0-7.853,3.523-7.853,7.853   c0,4.323,3.522,7.839,7.853,7.839c3.05,0,5.764-1.773,7.044-4.459c-7.49-0.043-9.203-1.068-9.878-2.07   c-0.968-1.437-0.861-2.602-0.601-3.324c0.673-1.867,2.937-2.58,3.192-2.654l5.046-1.498C22.698,54.451,21.02,53.852,19.261,53.852z   "/></g><text x="0" y="115" fill="#000000" font-size="5px" font-weight="bold" font-family="'Helvetica Neue', Helvetica, Arial-Unicode, Arial, Sans-serif">Created by Iconic</text><text x="0" y="120" fill="#000000" font-size="5px" font-weight="bold" font-family="'Helvetica Neue', Helvetica, Arial-Unicode, Arial, Sans-serif">from the Noun Project</text></svg>